<?xml version="1.0" encoding="UTF-8" standalone="no"?>
<!DOCTYPE svg PUBLIC "-//W3C//DTD SVG 1.1//EN"
 "http://www.w3.org/Graphics/SVG/1.1/DTD/svg11.dtd">
<!-- Generated by graphviz version 2.38.0 (20140413.2041)
 -->
<!-- Title: G Pages: 1 -->
<svg width="139pt" height="179pt"
 viewBox="0.00 0.00 139.38 178.57" xmlns="http://www.w3.org/2000/svg" xmlns:xlink="http://www.w3.org/1999/xlink">
<g id="graph0" class="graph" transform="scale(1 1) rotate(0) translate(58.7967 78.1491)">
<title>G</title>
<!-- 0 -->
<g id="node1" class="node"><title>0</title>
<ellipse fill="none" stroke="black" cx="-5.02723" cy="12.3373" rx="30.5947" ry="18"/>
<text text-anchor="middle" x="-5.02723" y="16.0373" font-family="Times,serif" font-size="14.00">A | A</text>
</g>
<!-- 1 -->
<g id="node2" class="node"><title>1</title>
<ellipse fill="none" stroke="black" cx="50.6186" cy="-34.6098" rx="29.4969" ry="18"/>
<text text-anchor="middle" x="50.6186" y="-30.9098" font-family="Times,serif" font-size="14.00">R | R</text>
</g>
<!-- 0&#45;&#45;1 -->
<g id="edge1" class="edge"><title>0&#45;&#45;1</title>
<path fill="none" stroke="black" d="M12.5795,-2.51705C19.2024,-8.10463 26.7221,-14.4489 33.317,-20.0128"/>
<text text-anchor="middle" x="12.9482" y="-15.0649" font-family="Times,serif" font-size="14.00">&#45; | &#45;</text>
</g>
<!-- 2 -->
<g id="node3" class="node"><title>2</title>
<ellipse fill="none" stroke="black" cx="-28.8293" cy="81.7016" rx="29.4969" ry="18"/>
<text text-anchor="middle" x="-28.8293" y="85.4016" font-family="Times,serif" font-size="14.00">R | R</text>
</g>
<!-- 0&#45;&#45;2 -->
<g id="edge2" class="edge"><title>0&#45;&#45;2</title>
<path fill="none" stroke="black" d="M-11.1569,30.2003C-14.6831,40.4764 -19.1012,53.3517 -22.6377,63.658"/>
<text text-anchor="middle" x="-26.8973" y="43.1292" font-family="Times,serif" font-size="14.00">&#45; | &#45;</text>
</g>
<!-- 3 -->
<g id="node4" class="node"><title>3</title>
<ellipse fill="none" stroke="black" cx="-16.7621" cy="-59.4291" rx="27" ry="18"/>
<text text-anchor="middle" x="-16.7621" y="-55.7291" font-family="Times,serif" font-size="14.00">0 | 0</text>
</g>
<!-- 0&#45;&#45;3 -->
<g id="edge3" class="edge"><title>0&#45;&#45;3</title>
<path fill="none" stroke="black" stroke-dasharray="1,5" d="M-7.98843,-5.77238C-9.75377,-16.5686 -11.9887,-30.2365 -13.761,-41.0755"/>
<text text-anchor="middle" x="-13.3747" y="-27.224" font-family="Times,serif" font-size="14.00">&#45;</text>
</g>
<!-- 1&#45;&#45;3 -->
<g id="edge4" class="edge"><title>1&#45;&#45;3</title>
<path fill="none" stroke="black" stroke-dasharray="5,2" d="M25.1449,-43.9929C19.182,-46.1893 12.8535,-48.5203 6.97014,-50.6875"/>
<text text-anchor="middle" x="13.5575" y="-51.1402" font-family="Times,serif" font-size="14.00">&#45;</text>
</g>
</g>
</svg>
